<svg width="102" height="68" viewBox="0 0 102 68" fill="none" xmlns="http://www.w3.org/2000/svg">
<path d="M64.8645 10.5664C62.5979 10.5664 60.6542 10.5892 58.7276 10.5407C58.4726 10.5407 58.1751 10.2094 57.991 9.96945C57.4867 9.28396 57.005 8.57563 56.5744 7.84731C54.8744 5.08538 50.582 5.23961 48.9019 6.91333C47.4797 8.27947 46.1798 9.76952 45.0175 11.3661C42.4138 15.0792 39.521 18.5066 36.0815 21.4541C33.982 23.2364 32.3104 25.3385 31.7778 28.1176C31.1828 31.2251 33.1575 33.453 36.2741 33.0931C39.7788 32.6875 43.2921 32.2362 46.7373 31.5022C49.6924 30.8911 52.7382 30.8766 55.6989 31.4593C59.6031 32.162 63.564 32.5561 67.4937 33.1102C68.6582 33.2759 69.477 32.7846 70.089 31.8735C71.0494 30.4797 71.1769 28.9516 70.7689 27.355C70.1993 25.1384 68.8226 23.2193 66.9129 21.9797C66.0729 21.4737 65.112 21.2081 64.1335 21.2114C59.9884 21.1343 55.8405 21.16 51.6955 21.2114C50.7095 21.2114 50.3724 20.8972 50.4234 19.9147C50.4488 18.9568 50.4176 17.9983 50.3299 17.0442C50.2817 16.3187 50.5055 15.9988 51.296 16.0017C56.189 16.0188 61.0821 15.9846 65.9751 15.9817C67.5568 15.9673 69.0981 16.4849 70.3553 17.4526C74.2878 20.483 76.7131 24.3732 76.6083 29.5257C76.5119 34.2441 73.1064 38.417 68.9047 38.754C66.9356 38.9111 64.9041 38.6141 62.9265 38.3399C59.3283 37.8372 55.7584 37.1346 52.1602 36.6576C51.0524 36.5119 49.8766 36.7575 48.7603 36.9432C45.0374 37.5316 41.3343 38.2599 37.6001 38.7626C33.0046 39.3767 29.0635 37.4545 27.1397 33.7786C25.4709 30.5939 25.7769 27.3664 27.1397 24.1618C28.3316 21.4187 30.1546 19.0013 32.4577 17.1099C35.4695 14.5565 37.9542 11.5489 40.2917 8.36999C41.8783 6.21357 43.6236 4.08572 45.6295 2.35202C49.6187 -1.1468 57.498 -1.03827 61.2492 4.69694C62.459 6.54489 63.5725 8.45282 64.8645 10.5664Z" fill="white"/>
<path d="M10.4957 51.3797C10.1932 50.825 9.77711 50.4026 9.2476 50.1127C8.71808 49.8227 8.10032 49.6777 7.3943 49.6777C6.61263 49.6777 5.91922 49.8542 5.31406 50.2072C4.7089 50.5602 4.23612 51.0645 3.89572 51.7201C3.55531 52.3757 3.38511 53.1322 3.38511 53.9895C3.38511 54.872 3.55531 55.641 3.89572 56.2966C4.24873 56.9522 4.73411 57.4565 5.35188 57.8095C5.96965 58.1625 6.68828 58.339 7.50776 58.339C8.51636 58.339 9.34215 58.0743 9.98514 57.5448C10.6281 57.0027 11.0505 56.2525 11.2522 55.2943H6.71349V53.2708H13.8619V55.578C13.6854 56.4984 13.3072 57.3494 12.7273 58.131C12.1473 58.9127 11.3972 59.5431 10.4768 60.0221C9.56909 60.4886 8.54788 60.7219 7.41321 60.7219C6.13985 60.7219 4.98626 60.4382 3.95245 59.8709C2.93124 59.2909 2.12436 58.4903 1.53181 57.4691C0.951866 56.4479 0.661893 55.288 0.661893 53.9895C0.661893 52.6909 0.951866 51.531 1.53181 50.5098C2.12436 49.476 2.93124 48.6754 3.95245 48.1081C4.98626 47.5281 6.13355 47.2382 7.3943 47.2382C8.88198 47.2382 10.1742 47.6038 11.2711 48.335C12.368 49.0536 13.1244 50.0685 13.5404 51.3797H10.4957ZM27.2999 49.9803C28.548 49.9803 29.5566 50.3774 30.3257 51.1717C31.0947 51.9534 31.4792 53.0502 31.4792 54.4622V60.6084H28.8317V54.8216C28.8317 53.9895 28.6236 53.3528 28.2076 52.9115C27.7915 52.4577 27.2242 52.2307 26.5056 52.2307C25.7743 52.2307 25.1944 52.4577 24.7657 52.9115C24.3497 53.3528 24.1417 53.9895 24.1417 54.8216V60.6084H21.4941V50.1316H24.1417V51.4364C24.4947 50.9826 24.9423 50.6296 25.4844 50.3774C26.0391 50.1127 26.6443 49.9803 27.2999 49.9803ZM41.013 48.8834C40.5465 48.8834 40.1557 48.7384 39.8405 48.4485C39.5379 48.1459 39.3866 47.774 39.3866 47.3327C39.3866 46.8914 39.5379 46.5258 39.8405 46.2359C40.1557 45.9333 40.5465 45.782 41.013 45.782C41.4795 45.782 41.864 45.9333 42.1666 46.2359C42.4818 46.5258 42.6394 46.8914 42.6394 47.3327C42.6394 47.774 42.4818 48.1459 42.1666 48.4485C41.864 48.7384 41.4795 48.8834 41.013 48.8834ZM42.3179 50.1316V60.6084H39.6703V50.1316H42.3179ZM53.0277 58.4336H57.6988V60.6084H50.0208V58.4714L54.5973 52.3064H50.0397V50.1316H57.6421V52.2685L53.0277 58.4336ZM67.8427 58.4336H72.5138V60.6084H64.8359V58.4714L69.4124 52.3064H64.8548V50.1316H72.4571V52.2685L67.8427 58.4336ZM89.9764 55.143C89.9764 55.5213 89.9512 55.8617 89.9008 56.1643H82.2417C82.3048 56.9207 82.5695 57.5133 83.036 57.9419C83.5025 58.3706 84.0761 58.5849 84.7569 58.5849C85.7403 58.5849 86.44 58.1625 86.8561 57.3178H89.7117C89.4091 58.3264 88.8292 59.1585 87.9718 59.8141C87.1145 60.4571 86.0618 60.7786 84.8137 60.7786C83.8051 60.7786 82.8973 60.558 82.0905 60.1167C81.2962 59.6628 80.6721 59.0262 80.2182 58.2067C79.777 57.3872 79.5563 56.4416 79.5563 55.37C79.5563 54.2857 79.777 53.3339 80.2182 52.5144C80.6595 51.6949 81.2773 51.0645 82.0715 50.6233C82.8658 50.182 83.7799 49.9614 84.8137 49.9614C85.8097 49.9614 86.6985 50.1757 87.4802 50.6044C88.2744 51.033 88.8859 51.6445 89.3145 52.4387C89.7558 53.2204 89.9764 54.1218 89.9764 55.143ZM87.2343 54.3866C87.2217 53.7058 86.9759 53.1637 86.4968 52.7602C86.0177 52.3442 85.4314 52.1362 84.738 52.1362C84.0824 52.1362 83.5277 52.3379 83.0738 52.7413C82.6326 53.1322 82.3615 53.6806 82.2607 54.3866H87.2343ZM100.23 46.6141V60.6084H97.5823V46.6141H100.23Z" fill="white"/>
</svg>
